Coordinates
version=1
nRows=17
nColumns=34
inDegrees=yes

Units are S.I. units (second, meters, Newtons, ...)
If the header above contains a line with 'inDegrees', this indicates whether rotational values are in degrees (yes) or radians (no).

endheader
time	pelvis_tilt	pelvis_list	pelvis_rotation	pelvis_tx	pelvis_ty	pelvis_tz	hip_flexion_r	hip_adduction_r	hip_rotation_r	knee_angle_r	ankle_angle_r	subtalar_angle_r	mtp_angle_r	hip_flexion_l	hip_adduction_l	hip_rotation_l	knee_angle_l	ankle_angle_l	subtalar_angle_l	mtp_angle_l	lumbar_extension	lumbar_bending	lumbar_rotation	arm_flex_r	arm_add_r	arm_rot_r	elbow_flex_r	pro_sup_r	arm_flex_l	arm_add_l	arm_rot_l	elbow_flex_l	pro_sup_l
      2.35000000	    -25.04862259	      2.69219335	      0.34727822	      0.71635535	      1.06009285	     -0.12939123	     50.21192610	     -7.35462757	     -4.20020200	     39.48711327	     12.75360598	    -17.70594710	      0.00000000	     46.98608890	     -5.75767984	    -10.26964160	     34.53207607	     10.45743742	     -5.47093095	      0.00000000	    -16.53121436	     -3.36694140	     -2.89950924	     11.37750992	    -17.90784561	      5.53130054	     47.03203676	     90.59097204	     12.05764287	    -17.18944737	      5.35600896	     39.55719021	     71.10462162
      2.36666670	    -24.23293740	      2.93823405	      0.02649123	      0.72394051	      1.06978831	     -0.12515656	     47.93460115	     -7.35480628	     -4.41863595	     37.55601479	     12.40618564	    -16.74209457	      0.00000000	     44.47733025	     -5.49017894	    -10.41011912	     32.15257089	      9.24010449	     -6.07998341	      0.00000000	    -15.29612292	     -3.66992836	     -3.16957760	      9.95856498	    -17.41096202	      5.05893065	     46.20771114	     90.54033016	      9.35644321	    -16.91858881	      4.00582758	     39.28069617	     71.37390541
      2.38333330	    -23.18035854	      3.16962423	     -0.52575056	      0.73108847	      1.09388909	     -0.12853002	     45.01932067	     -7.43754056	     -4.88298037	     34.94034889	     11.03982355	    -15.89577597	      0.00000000	     41.27615617	     -5.10250927	    -10.77923693	     29.25325713	      7.92483822	     -6.05821208	      0.00000000	    -14.50472043	     -3.88184561	     -3.12909251	      8.96272401	    -17.15630680	      4.94621155	     45.25681843	     90.51657523	      7.22865574	    -16.47671286	      2.97305493	     38.87201770	     71.56420553
      2.40000000	    -21.84485811	      2.96670283	     -0.16644570	      0.73856094	      1.09191716	     -0.12501179	     42.24908916	     -7.42283594	     -5.69688928	     33.24525520	     10.78861710	    -15.16909419	      0.00000000	     38.51644401	     -4.88471780	    -10.65425002	     27.13378686	      6.66449206	     -6.37251818	      0.00000000	    -13.77964547	     -3.66405321	     -3.77582787	      7.81808209	    -16.76015636	      4.68517404	     44.65345379	     90.43515209	      5.34541744	    -16.42952835	      2.06791754	     38.64441545	     71.77758809
      2.41666670	    -21.12636414	      2.50171199	      0.94327529	      0.73784321	      1.10050950	     -0.12631979	     40.04694468	     -7.51483549	     -6.85738346	     31.30688772	     10.27625753	    -15.08723134	      0.00000000	     37.00135641	     -4.58698168	    -10.13063622	     25.55737740	      5.62673321	     -5.98958033	      0.00000000	    -13.09738872	     -3.15291917	     -4.68874983	      7.00169639	    -16.44046726	      4.33532311	     44.07385230	     90.32317551	      4.30081668	    -16.44792268	      1.55470345	     38.52668516	     71.97851653
      2.43333330	    -19.63394813	      1.48687566	      2.13513307	      0.74568812	      1.10503965	     -0.12516265	     36.75815935	     -6.91043411	     -8.10584318	     29.15174545	     10.08173075	    -15.02456544	      0.00000000	     35.21364465	     -5.00192774	     -9.30774148	     24.94204672	      5.13867130	     -5.05681344	      0.00000000	    -12.66380495	     -2.08541402	     -5.51044686	      6.17532059	    -16.23294056	      4.08814040	     43.25805311	     90.20749836	      3.23689282	    -16.22960325	      1.26801148	     38.13930957	     72.14732750
      2.45000000	    -18.36114422	      0.82449799	      2.97571199	      0.75156068	      1.10859511	     -0.13025420	     33.71900990	     -6.46989928	     -9.02898269	     26.90855533	      9.80486034	    -15.08606551	      0.00000000	     33.28443258	     -5.08794017	     -8.63186619	     23.87863958	      5.38046281	     -3.92314702	      0.00000000	    -11.92744454	     -1.35715331	     -6.28679472	      5.24061343	    -16.10306815	      3.94550608	     42.58472633	     90.07374400	      2.28009552	    -15.96296556	      1.09858359	     37.86738840	     72.30900862
      2.46666670	    -16.92352833	      0.06639350	      3.79316146	      0.75828968	      1.12384092	     -0.13560022	     30.01496366	     -5.94022188	    -10.08266615	     23.87107013	      8.87426491	    -14.94866811	      0.00000000	     31.10054402	     -5.18695890	     -7.60793741	     22.70748596	      5.35250564	     -3.09227157	      0.00000000	    -11.43240155	     -0.45318011	     -6.76259738	      4.34523201	    -16.12495513	      3.85087868	     41.81914170	     89.92063749	      1.39198862	    -15.52139242	      1.03843412	     37.46689350	     72.44343378
      2.48333330	    -15.65147726	     -0.25849140	      4.14790820	      0.76538327	      1.12331160	     -0.14017993	     26.94637555	     -5.66106608	    -10.83032778	     21.60015461	      7.91763069	    -14.80746255	      0.00000000	     28.91550390	     -5.03932167	     -6.81976499	     21.44580443	      5.44013580	     -2.81958864	      0.00000000	    -10.70443643	      0.04830068	     -7.09079447	      3.50349154	    -16.19320439	      3.72980434	     41.54169206	     89.75633195	      0.35879971	    -14.97490740	      0.81678766	     37.16173705	     72.53079071
      2.50000000	    -14.09274381	     -0.30066841	      4.06693556	      0.78946287	      1.12697192	     -0.14446597	     23.03681789	     -5.42641334	    -11.44526867	     19.04479692	      7.37395605	    -14.05152784	      0.00000000	     25.65394984	     -4.88002490	     -6.53227992	     19.90677136	      6.16543415	     -2.45277355	      0.00000000	     -9.47444880	      0.15622738	     -6.89693134	      1.90358958	    -16.24612601	      3.39495198	     40.97812574	     89.51018226	     -1.17476478	    -14.23911127	      0.43868470	     36.83707483	     72.58681517
      2.51666670	    -13.05613125	     -0.18099425	      3.42646171	      0.79625635	      1.12622865	     -0.14824612	     20.35755218	     -5.31322435	    -11.44856356	     17.39377505	      7.12171134	    -13.37656416	      0.00000000	     23.05468990	     -4.64257336	     -6.55927548	     18.66149803	      7.12780078	     -2.83127196	      0.00000000	     -7.98698061	      0.16839273	     -6.46622835	      0.31462780	    -16.30953140	      2.87741188	     40.52763284	     89.23910542	     -2.68334249	    -13.41830802	      0.01815057	     36.55838057	     72.62993692
      2.53333330	    -12.27341373	      0.13619912	      2.79988012	      0.80291055	      1.13180866	     -0.15092085	     18.00520008	     -5.43716604	    -11.23112586	     15.43278222	      6.69981529	    -12.69760488	      0.00000000	     20.70966475	     -4.11985485	     -6.26875265	     17.13671995	      7.31316401	     -3.56743420	      0.00000000	     -6.65176686	      0.01119338	     -6.21039464	     -1.25646951	    -16.22759966	      2.26157932	     40.33276965	     88.97960720	     -4.11639254	    -12.68912654	     -0.24807075	     36.24878030	     72.69391558
      2.55000000	    -11.37648838	      0.32644272	      1.94266632	      0.80236358	      1.13082482	     -0.14992270	     16.20469347	     -5.36327436	    -10.65191362	     14.17085988	      6.81378363	    -12.15640059	      0.00000000	     18.65964739	     -3.79886932	     -5.85378949	     15.89875549	      7.57754868	     -4.99932741	      0.00000000	     -5.99416920	      0.05591722	     -5.40143382	     -2.48122745	    -16.06523536	      0.70330388	     40.39039835	     88.44364610	     -4.85634542	    -12.02746455	     -0.92914082	     35.70372978	     72.88409361
      2.56666670	    -10.52164924	      0.61159912	      0.93457715	      0.81790999	      1.13954183	     -0.14918402	     14.38652465	     -5.36948591	     -9.97655746	     12.99820813	      6.39497507	    -11.56341801	      0.00000000	     16.37448232	     -3.51069042	     -5.89652993	     14.53267505	      7.56786118	     -5.68653779	      0.00000000	     -5.13288067	     -0.08370247	     -4.68799321	     -3.79941761	    -15.61965791	     -0.59773560	     39.84275324	     87.94829728	     -5.70024443	    -11.38411103	     -1.21062041	     35.08648602	     73.21536241
      2.58333330	    -10.01689862	      0.61178896	      0.45964628	      0.80847495	      1.13654029	     -0.15236407	     13.58572917	     -5.28215807	     -9.44185979	     12.40195376	      6.43617829	    -11.69071866	      0.00000000	     15.23991234	     -3.29134711	     -5.49803565	     13.78226612	      7.87791087	     -6.95832856	      0.00000000	     -4.51114554	      0.17872733	     -3.89601824	     -5.26641035	    -15.16558597	     -3.05376756	     40.10766482	     86.94988706	     -5.52280934	    -10.90052716	     -0.84498812	     34.12874640	     74.33511712
      2.60000000	     -9.45264705	      0.79243258	     -0.33176534	      0.80745863	      1.13988539	     -0.15139863	     12.96018932	     -5.36928000	     -8.75556555	     12.04456944	      6.15065281	    -11.62098102	      0.00000000	     14.19191568	     -3.09057511	     -5.65110410	     13.23473900	      7.96674287	     -7.36093135	      0.00000000	     -4.17731259	      0.11598338	     -3.42575530	     -5.73347843	    -15.00906132	     -3.14680967	     39.36984546	     86.83267416	     -5.66781475	    -10.54515199	     -0.73041495	     33.98345102	     74.56661307
      2.61666670	     -9.02646425	      1.01644748	     -1.00242883	      0.80702569	      1.14176262	     -0.15059104	     12.45602606	     -5.46677297	     -8.05426539	     11.50549763	      5.74434620	    -11.74642677	      0.00000000	     13.42262249	     -2.81344094	     -5.98020546	     12.60719852	      7.63500818	     -7.98582545	      0.00000000	     -3.99500011	     -0.04546561	     -3.11317058	     -5.62707517	    -14.70595062	     -3.34948541	     38.30158733	     86.66088509	     -5.40437451	    -10.30159185	     -0.60471470	     33.71028213	     74.87927803
